<?xml version="1.0" encoding="UTF-8"?>
<svg version="1.1" xmlns="http://www.w3.org/2000/svg" width="449" height="495">
<path d="M0 0 C9.85692398 6.71351821 19.05653848 14.29855223 28.27612305 21.84619141 C33.80544784 26.35517322 39.45461156 30.68938139 45.14135742 34.99707031 C50.03075459 38.71455459 54.8167047 42.53881491 59.5625 46.4375 C66.75309998 52.33827448 74.14969681 57.92276908 81.61572266 63.46826172 C88.27497655 68.43983738 94.85064729 73.52460829 101.3125 78.75 C105.50574511 82.13033814 109.80185603 85.35195267 114.125 88.5625 C119.67114847 92.68714565 125.09557232 96.92677407 130.4375 101.3125 C139.49352007 108.74155122 148.80122573 115.82099753 158.15087891 122.875 C160.0122129 124.27943431 161.87247118 125.68529535 163.73168945 127.0925293 C165.52063141 128.44634453 167.311975 129.79699467 169.10620117 131.14379883 C187.65764366 145.18909467 187.65764366 145.18909467 189 154.25 C188.1629623 160.3185233 185.25027388 164.20807249 180.875 168.375 C175.95150362 170.56322062 171.79711594 170.80380937 166.5 169.875 C157.97095822 166.4310967 150.66042831 159.57027332 143.5 153.875 C142.66726563 153.215 141.83453125 152.555 140.9765625 151.875 C137.9372188 149.45160303 134.91018773 147.01312853 131.88525391 144.57177734 C123.86575838 138.10444224 115.76817553 131.7604795 107.56518555 125.52734375 C102.6697899 121.79751849 97.88612529 117.95532782 93.14453125 114.03125 C89.21219692 110.82497444 85.17820135 107.75390788 81.1484375 104.671875 C76.93614614 101.44892248 72.74866041 98.19428347 68.5625 94.9375 C67.40621094 94.03813721 67.40621094 94.03813721 66.2265625 93.12060547 C61.61820704 89.53297739 57.0234586 85.92868477 52.4375 82.3125 C47.38616536 78.33272708 42.29756761 74.40404757 37.1875 70.5 C36.47456787 69.95520996 35.76163574 69.41041992 35.02709961 68.84912109 C31.43700552 66.10862206 27.8414449 63.37563622 24.23828125 60.65234375 C17.70574877 55.70217926 11.24875295 50.70810328 4.97094727 45.43652344 C-12.24324604 30.15328843 -12.24324604 30.15328843 -33.75 25 C-40.13994259 26.49098661 -44.83446419 29.67402019 -49.875 33.75 C-50.77629639 34.46857178 -50.77629639 34.46857178 -51.69580078 35.20166016 C-53.63612633 36.75262272 -55.5689536 38.31250321 -57.5 39.875 C-58.14324219 40.39449219 -58.78648437 40.91398437 -59.44921875 41.44921875 C-64.8326997 45.80113449 -70.19816812 50.17506864 -75.55712891 54.55712891 C-83.33840207 60.9192575 -91.16269764 67.18715563 -99.15625 73.28125 C-102.99887241 76.2371134 -106.74743114 79.30617322 -110.5 82.375 C-116.35818889 87.16375959 -122.28811688 91.8330819 -128.30078125 96.42578125 C-136.83977464 102.94880571 -145.23943162 109.64181908 -153.5625 116.4375 C-161.52485411 122.9358637 -169.63985706 129.20744869 -177.84375 135.3984375 C-184.68757957 140.58207106 -191.30432283 145.91718246 -197.5 151.875 C-198.05042969 152.38804687 -198.60085937 152.90109375 -199.16796875 153.4296875 C-216.90644969 171.78639967 -217.6542224 200.70327259 -217.64526367 224.43286133 C-217.64826423 226.04279151 -217.65166879 227.65272098 -217.65544128 229.26264954 C-217.66419286 233.59340625 -217.66661559 237.92414314 -217.66725707 242.25490785 C-217.66797246 244.97112049 -217.67011591 247.68732824 -217.67275429 250.40353966 C-217.68197745 259.90908498 -217.68609286 269.41461637 -217.68530273 278.92016602 C-217.68470231 287.73381116 -217.69525514 296.54739503 -217.7110464 305.36102468 C-217.7241845 312.96915591 -217.72948404 320.57726726 -217.72884732 328.18540972 C-217.72859424 332.71128834 -217.73133976 337.23711236 -217.74202538 341.76297951 C-217.75181312 346.02389924 -217.75171366 350.28471334 -217.74450874 354.54563713 C-217.74347612 356.09462771 -217.74574535 357.64362525 -217.7518692 359.19260406 C-217.78131826 367.16834954 -217.52208416 375.01960182 -216.62153625 382.94975281 C-216.54557604 383.63038782 -216.46961583 384.31102283 -216.39135379 385.01228315 C-213.60682507 407.20706225 -200.740684 426.1714672 -183.5 439.875 C-162.55846165 454.47147985 -139.27914865 455.32412006 -114.72705078 455.31079102 C-111.6796677 455.31435715 -108.6331637 455.34163636 -105.5859375 455.37109375 C-104.66090424 455.36291122 -103.73587097 455.3547287 -102.7828064 455.34629822 C-95.53406539 455.43002317 -91.99588424 457.59614917 -86.625 462.5 C-83.7400748 467.08194003 -83.48332267 470.59641133 -84.5 475.875 C-86.5888266 480.93081296 -89.36281412 484.691696 -94.5 486.875 C-98.57938664 487.90149612 -102.45401678 488.01796751 -106.65234375 488.04296875 C-107.34055206 488.04720352 -108.02876038 488.05143829 -108.73782349 488.05580139 C-110.97111101 488.06568985 -113.20419443 488.06571978 -115.4375 488.0625 C-116.2002121 488.06189575 -116.96292419 488.0612915 -117.74874878 488.06066895 C-156.65598837 487.97692389 -190.4118054 480.843286 -219.1875 452.625 C-233.07985811 438.56272357 -242.31821541 420.87487682 -247.5 401.875 C-247.76022414 400.95075682 -247.76022414 400.95075682 -248.02570534 400.00784206 C-250.20540452 390.96886689 -249.79616805 381.73354583 -249.79052734 372.49829102 C-249.79651912 370.53751878 -249.80332615 368.57674889 -249.81088257 366.61598206 C-249.8284893 361.30966987 -249.83323586 356.00342228 -249.83451414 350.69708371 C-249.83593997 347.3731471 -249.84021786 344.04922668 -249.84550858 340.72529411 C-249.86399527 329.10371746 -249.87218139 317.48218657 -249.87060547 305.8605957 C-249.86940629 295.07024602 -249.89046825 284.28009708 -249.9220928 273.48979813 C-249.94835657 264.19340096 -249.95896846 254.89706892 -249.95769465 245.60063499 C-249.95718773 240.06294974 -249.96271936 234.5254428 -249.98405075 228.98779488 C-250.00360262 223.76982046 -250.00344327 218.55219126 -249.98901749 213.33420372 C-249.98694872 211.43451551 -249.99151269 209.53480472 -250.0037384 207.63515472 C-250.19848002 175.23973087 -239.75920168 146.61352033 -217.0234375 123.33984375 C-209.96720086 116.62221909 -202.07953145 111.03545367 -194.2109375 105.3203125 C-184.34746955 98.14363895 -174.91497258 90.42206712 -165.46459961 82.71508789 C-158.31624185 76.89251671 -151.05839832 71.21372692 -143.79101562 65.54101562 C-136.25961306 59.6584492 -128.80333662 53.69553315 -121.40209961 47.64990234 C-117.21439841 44.23935798 -112.9824112 40.89933824 -108.6875 37.625 C-103.82863426 33.91817491 -99.08176552 30.10266244 -94.3671875 26.21484375 C-90.58426155 23.12768756 -86.75241426 20.10595051 -82.89819336 17.10839844 C-79.91344031 14.78534996 -76.95950818 12.43894689 -74.05859375 10.01171875 C-52.99070519 -7.43245701 -24.92641619 -15.0197636 0 0 Z " fill="#000000" transform="translate(249.5,7.125)"/>
<path d="M0 0 C0.66 0 1.32 0 2 0 C2.27880005 1.36596313 2.27880005 1.36596313 2.56323242 2.75952148 C11.17310442 52.07699861 11.17310442 52.07699861 40.90234375 90.0234375 C59.5208504 101.90359433 80.6833767 106.37724647 102 111 C102.83370117 111.18224121 103.66740234 111.36448242 104.52636719 111.55224609 C108.34713232 112.38663744 112.17057911 113.20626549 116 114 C116 114.66 116 115.32 116 116 C114.61216309 116.27094482 114.61216309 116.27094482 113.19628906 116.54736328 C80.11556755 122.65520251 80.11556755 122.65520251 49 135 C48.12214844 135.46019531 47.24429688 135.92039062 46.33984375 136.39453125 C27.02005751 147.23391673 17.73674283 165.91943285 11.66503906 186.57177734 C7.75254843 200.85725158 4.73776497 215.44661779 2 230 C1.34 230 0.68 230 0 230 C-0.30852905 228.48369995 -0.30852905 228.48369995 -0.62329102 226.93676758 C-9.35254793 177.09234854 -9.35254793 177.09234854 -39.92504883 139.06958008 C-61.89026377 125.13493138 -88.82347722 120.73617755 -114 116 C-114 115.34 -114 114.68 -114 114 C-112.88254395 113.75878418 -111.76508789 113.51756836 -110.61376953 113.26904297 C-106.37325959 112.35086283 -102.13575068 111.41939843 -97.89892578 110.484375 C-96.0826327 110.0853724 -94.26559658 109.68973375 -92.44775391 109.29785156 C-71.49178782 104.77498118 -49.44549661 99.59620382 -33 85 C-32.39929688 84.49210937 -31.79859375 83.98421875 -31.1796875 83.4609375 C-9.49714646 63.72301898 -5.54782346 27.04935576 0 0 Z M0 69 C-0.53367187 70.01578125 -1.06734375 71.0315625 -1.6171875 72.078125 C-12.28698949 91.97599504 -25.49222156 104.71461906 -46 114 C-43.42926009 116.9813442 -40.49792284 118.38444705 -37 120.125 C-19.60675892 129.33432453 -8.5006644 143.55402106 0 161 C2.81996174 158.50183569 4.38317925 155.72470668 6.1875 152.4375 C9.6183637 146.45696286 13.47819383 141.19507309 18 136 C18.50660156 135.39800781 19.01320313 134.79601562 19.53515625 134.17578125 C26.96844368 126.02007714 37.45704529 120.34946559 47 115 C43.96604651 112.60439606 40.81994682 110.73962448 37.4375 108.875 C20.90650315 99.29911768 10.08399532 86.13807008 2 69 C1.34 69 0.68 69 0 69 Z " fill="#000000" transform="translate(333,229)"/>
</svg>
